<?xml version="1.0" encoding="utf-8"?>
<!-- Generator: Adobe Illustrator 22.0.1, SVG Export Plug-In . SVG Version: 6.00 Build 0)  -->
<svg version="1.1" id="Warstwa_1" xmlns="http://www.w3.org/2000/svg" xmlns:xlink="http://www.w3.org/1999/xlink" x="0px" y="0px"
	 viewBox="0 0 50 50" style="enable-background:new 0 0 50 50;" xml:space="preserve">
<style type="text/css">
	.st0{fill:#BD2026;}
</style>
<g>
	<g transform="matrix( 1, 0, 0, 1, 0,0) ">
		<g>
			<g>
				<path class="st0" d="M43,0.2c-1.9,0-3.5,0.7-4.8,2L25,15.4L11.8,2.2c-1.3-1.3-2.9-2-4.8-2c-1.9,0-3.5,0.7-4.8,2
					c-1.3,1.3-2,2.9-2,4.8c0,1.9,0.7,3.5,2,4.8L15.4,25L2.2,38.2c-1.3,1.3-2,2.9-2,4.8c0,1.9,0.7,3.5,2,4.8c1.3,1.3,2.9,2,4.8,2
					c1.9,0,3.5-0.6,4.8-2L25,34.6l13.2,13.2c1.3,1.3,2.9,2,4.8,2c1.9,0,3.5-0.6,4.8-2c1.3-1.3,2-2.9,2-4.8c0-1.9-0.6-3.5-2-4.8
					L34.6,25l13.2-13.2c1.3-1.3,2-2.9,2-4.8c0-1.9-0.6-3.5-2-4.8C46.5,0.8,44.9,0.2,43,0.2z"/>
			</g>
		</g>
	</g>
</g>
<g>
</g>
<g>
</g>
<g>
</g>
<g>
</g>
<g>
</g>
<g>
</g>
</svg>
